# xmcd CD database file
#
# Track frame offsets:
#	150
#	14295
#	36101
#	68713
#	80577
#	93256
#	116377
#	137837
#	148853
#	169215
#
# Disc length: 2573 seconds
#
# Revision: 0
# Processed by: cddbd v1.5.2PL0 Copyright (c) Steve Scherf et al.
# Submitted via: CDex 1.51
#
DISCID=830a0b0a
DTITLE=Husky Rescue - Ghost Is Not Real
DYEAR=2007
DGENRE=Jazz
TTITLE0=My Home Ghost
TTITLE1=Diamonds In the Sky
TTITLE2=Nightless Night
TTITLE3=Blueberry Tree, Pt. 1
TTITLE4=Blueberry Tree, Pt. 2
TTITLE5=Blueberry Tree, Pt. 3
TTITLE6=Hurricane (Don't Come Knocking)
TTITLE7=Silent Woods
TTITLE8=Shadow Run
TTITLE9=Caravan
EXTD=YEAR: 2007
EXTT0=
EXTT1=
EXTT2=
EXTT3=
EXTT4=
EXTT5=
EXTT6=
EXTT7=
EXTT8=
EXTT9=
PLAYORDER=
